<?xml version="1.0" encoding="UTF-8" ?>
<svg
  id="Layer_1"
  xmlns="http://www.w3.org/2000/svg"
  viewBox="0 0 824.11 376.83"¨
  
><defs><style>.cls-1{fill:#ffeb00;stroke-width:0px;}</style></defs><path
    class="cls-1"
    d="M332.3,1c-1.8.6-6.3,4-9.9,7.5-3.7,3.6-7.1,6.5-7.7,6.5-.5,0-4-2.7-7.7-6-3.7-3.2-7.9-6.4-9.4-7-1.5-.5-7.7-1-13.8-1-11.9,0-15.6,1.1-19.9,5.6-3,3.2-6.7,3-11.1-.6-4.7-3.9-12-5.4-21.6-4.6-9.4.9-12.6,2.2-18,7.7-4.9,5-4.6,5-14.1-2.8-6.2-5-10-5.6-33.3-5.1l-15.6.3-4.4,3.3c-7.8,5.9-8.1,5.9-14.1,1.8-6.3-4.4-13.4-5.7-23.7-4.6-7.8.9-9.7,1.7-13.8,6.5-4.9,5.5-6.2,8.9-7.3,18.2-1.2,10.6-2.5,13.7-6.1,14.1-4.2.5-5.8-3-6.7-14.6-.5-6.3-1.4-10.9-2.4-12.5-2.6-4-8-8.9-11.2-10.3-4.8-2-19.3-2.8-24.4-1.4-5.9,1.6-14.7,9.9-16.2,15.2-.7,2.6-1,24.2-.8,63.9l.2,59.9-8.1,7.7C1.3,158.3.1,161.4,2.5,171.6c.8,3.7,2.4,8.6,3.4,11,2.3,5,9.3,12.9,13.5,15.1,3.8,2,11.2,1.3,22.6-2.2,31.4-9.7,34.1-10.4,37.7-10.5,5.4,0,6.3,2.5,6.3,17.1,0,17.6-.8,18.5-20,24.8-10.9,3.6-28.4,14-39.2,23.4-6.4,5.5-16.4,17.9-19.6,24.4-3.5,6.8-7.2,22.7-7.2,30.7,0,9.4,1.5,19.4,4,26.4,4.2,11.9,18,27.8,30.5,35.2,27.8,16.5,65.3,11.8,88.5-10.9,14.8-14.6,18.9-27.6,19-61.1.1-25.3.8-26.2,17.9-25.8l11.6.3,1.5,3c1.2,2.4,1.6,9.3,2,33.5.6,27.9.8,31,2.7,35.8,6.4,16,23.4,27.8,46.4,32.2,7.1,1.4,31.4,1.4,39,0,15.4-2.8,29.9-9.9,38.3-18.9,1.7-1.7,3.3-3.1,3.7-3.1.5,0,3.3,2,6.4,4.5s6.7,5,8.1,5.5c4,1.5,23.9,1.2,27.7-.4,1.8-.8,5.7-3.9,8.7-7s6.1-5.6,6.9-5.6c.7,0,3.5,2,6.1,4.4,8.3,7.7,11.9,9.1,24,9,11,0,12.3-.4,19.9-5.9,4.2-3.1,4-3.1,8.2,0,7.1,5.2,10.9,6.5,19.9,6.5,12.6,0,15.5-1,21.7-7.3,5.9-5.8,7.2-9.1,7.3-18.7.1-7.5,1.3-13.3,2.7-13.7,1.8-.6,5.3,7.1,6.4,14,1.4,8.5,3.8,13.4,9.4,18.9,6.4,6.3,9.3,7.1,23.5,6.6l11.8-.4,4.8-3.7c5.6-4.4,7.2-4.5,11.2-1.2,6,5.1,4.4,4.9,76.5,5.3,40,.2,71.1-.1,75.9-.6,9-1.1,12.9-3.5,18.2-11,2.8-4,3-4.7,3.4-17.5.4-11.2.2-13.8-1.3-16.6-2.3-4.5-9.1-10.8-12.9-12-1.7-.5-16.8-1.2-33.6-1.6-33.7-.7-35-.9-35-6.5,0-3.9,1.6-4.5,14.8-5.8,11.8-1.2,14.7-2.8,20-10.7,3.5-5.4,4.8-13.4,3.9-25.1-.6-8.3-1.4-10-7-16.1-5.5-6-7.9-7.1-18.6-8.1-10-1-12.1-2-9.7-4.5,1.1-1,4.5-1.7,11.3-2.1,16-1,19.9-2.1,25.5-7.4,8.3-7.8,9.3-10.1,9.3-22.4,0-5.9.3-11,.7-11.3.8-.9,4.6,1.1,7.8,4,5.2,4.8,16.4,11.5,24.1,14.5,7.6,2.9,22.5,6.3,33.1,7.6,10,1.1,15.7,9.2,12.7,17.7-1.9,5.5-5,7.4-14.5,9.1-9.8,1.7-15.2,4.3-19.3,9.4-4.5,5.8-5.1,8.2-5.1,21.7s1.6,23.5,5.6,36c8.4,25.8,29,49.5,50.9,58.4,24.8,10,38.4,7.6,45.4-7.9,2.7-5.9,3-23.3.5-28.6-2.7-5.6-10.6-12-16.6-13.4-10.1-2.4-18.3-8.5-21.4-15.9-2.7-6.4-2.1-7.8,7.5-17.3,10.3-10.1,13.9-15,18.5-25.1,6.4-13.9,8.4-31.6,5.1-45.5-3.5-14.6-14.4-32-25.7-41.1-7.9-6.4-19.5-12.5-27.3-14.4-3.3-.9-10.2-2.1-15.4-2.7-16.1-1.9-25.1-8-25.1-17,0-3.2.7-4.4,4.2-7.6,17.2-16,23.6-26.7,26.7-44.1,4.5-25.1-8.7-55.9-30.1-70.4-14.5-9.9-20.4-10.9-62.6-10.9-18,0-34.2.4-36,.9-1.8.6-4.6,2.1-6.3,3.5-3.8,3.2-6.8,3.3-11.4.2-2-1.4-5.6-2.8-8-3.1-6.3-1-65.4-1.1-69.7-.2-4.8,1-14,9.3-16.4,15-1.7,3.9-1.9,7.9-2.2,48.7-.1,24.5-.4,45.5-.7,46.7-.4,1.5-1,2-2.5,1.6-1.1-.3-2-1.2-2-2,0-2.8-11.9-21.8-19.2-30.6-6.3-7.6-6.7-9.5-3.2-15.4,12.1-20.8,18.4-38.1,16.9-46-1-5.5-2.9-8.6-8-13.1-5.9-5.1-11.3-6.6-22-6-6.7.5-9.4,1.1-12.9,3.2-5.8,3.4-11,9.5-15.3,18.1-6.7,13.2-14.1,19.8-18.2,16.1-1.4-1.2-2-3.7-2.4-10.3-.8-10.5-3.2-15.9-9.9-21.5-3.9-3.4-5.7-4.1-11.8-5.1-9.6-1.5-18.3,0-24.3,4.2-2.5,1.7-5.1,3.1-5.7,3.1-.7,0-3.7-1.6-6.9-3.5-5.3-3.3-6.3-3.5-16.1-4-5.8-.2-12,0-13.7.5ZM55,13.9l7.5.6-.4,19.2-.4,19.1,3.3,1.7c3,1.5,4.7,1.6,15.4.7,6.7-.6,13.2-1,14.6-.9l2.5.2.3-19.4c.1-10.7.7-20,1.2-20.6,1.1-1.3,25.8-1.3,27.9,0,3.9,2.3,4.1,5.8,3.5,51.2-.5,34.4-1,44.2-2,45.7-1.3,1.9-5.8,3.6-14.4,5.5-1.9.4-4.5,1.3-5.7,1.9-1.2.7-4,1.2-6.2,1.2h-4.1v-29.8l-5-1.1c-8-1.7-27.5-1.4-29,.4-.9,1.1-1.2,6.5-.9,21.6l.4,20.2-5,1.4c-2.7.8-6.7,1.8-8.8,2.2-2.1.5-4.4,1.4-5,2s-1.9,1.1-2.8,1.1c-1,0-3,.8-4.7,1.7-1.6.9-3.6,1.4-4.5,1-1.6-.6-1.7-5.6-1.9-59.7-.1-32.4-.2-60.7-.2-62.7l-.1-3.8,6.5-1.1c3.6-.6,7.4-.9,8.5-.6,1.1.2,5.3.8,9.5,1.1ZM196.6,13.3c.1.1.4,36.3.6,80.5.3,47.3.9,80.7,1.4,81.2,1.4,1.4,13-.9,14.6-2.7,3.6-4.3,4-12.3,4.5-85,.4-60.1.7-71.4,1.9-72.4.8-.6,6-1.3,12.2-1.6,5.9-.2,12.4-.5,14.5-.6l3.9-.2-.1,62.5c-.1,69.9-1.2,99.5-3.9,107.9-1.6,4.9-9.5,15.1-11.8,15.1-.4,0-1.5.6-2.3,1.4-5.2,4.6-24.2,10.6-33.8,10.6-5,0-15.7-2.7-25.3-6.4-3.1-1.2-12.1-7.6-15.5-11.1-5.1-5-8.3-10.4-9.5-16-1.1-4.7-1.5-22.8-1.8-84.2l-.3-78.2,2.3-.5c1.3-.3,3.4-.7,4.8-.8,2.7-.3,43.3.2,43.6.5ZM309.7,35c6.2,12.3,11.9,23,12.7,23.8s2.1,1.2,3,.9c1.3-.5,1.4-3.2.9-19.9-.6-18.4-.5-19.5,1.6-23.6l2.1-4.2h15c9.2,0,15.1.4,15.5,1,1,1.6.8,146.4-.2,167.5-.7,16.4-1,18-2.6,18-2.1,0-2.6-.9-9.7-15.5-5-10.3-5.6-11.4-7.8-15.5-.6-1.1-3.6-7-6.7-13-3.1-6.1-6-11.7-6.5-12.5s-1.1-2.2-1.4-3-1-2.2-1.5-3-1.2-2.2-1.5-3-1-2.2-1.5-3-1.2-2.2-1.5-3-1-2.2-1.5-3-1.2-2.2-1.5-3-1-2.2-1.5-3-1.2-2.2-1.5-3-1-2.2-1.5-3c-1.7-2.6-7.1-15-7.1-16.1,0-.6-1.2-.9-2.7-.7l-2.8.3-.3,13.7-.3,13.7-15.2.3c-8.3.2-15.6.2-16.2.1-1.3-.4-.7-107.1.6-109.5.9-1.6,2.5-1.8,15.7-1.5l14.6.3,11.3,22.4ZM407.7,13.2c.4.7,1.3,10.3,1.8,21.3l1,20,7.8-.2c9.3-.2,14.2-2.3,21.7-9,5.1-4.5,5.8-5.5,9.8-14,1.3-2.6,3-6.1,3.7-7.6.8-1.6,1.5-3.7,1.5-4.6,0-1,.9-3,2.1-4.5,2-2.6,2.2-2.6,15.3-2.6,16.5,0,17.2.5,16.1,10-.4,3.4-1.3,7.4-2.1,8.8-.8,1.5-1.4,3.3-1.4,4,0,.8-.6,2.6-1.4,4-.8,1.5-2.9,5.8-4.7,9.5-1.9,3.8-4,7.3-4.6,7.9-.7.6-1.3,1.6-1.3,2.2,0,.7-2.2,3.7-5,6.8-4.4,5-6.5,9.8-4.2,9.8s19,18.5,21.5,24c.4.8,1.6,2.8,2.7,4.5,1.1,1.6,2.3,3.7,2.6,4.5s1.2,2.8,1.9,4.5c2.9,6.6,4.8,12.7,8.5,26.5,1.6,6.2,2.9,18,2.3,20.7-.5,2.3-.7,2.3-16.9,2.3h-16.4v-5.1c0-5.4-2.3-16.2-4.6-21.7-.8-1.8-1.4-4-1.4-4.8,0-.9-.6-2.8-1.4-4.2-.8-1.5-1.7-3.4-2-4.2-.4-.8-1.5-2.9-2.6-4.5-1.1-1.7-2.4-3.9-2.9-5.1-1.3-2.9-10.5-12.2-13.3-13.4-1.3-.5-3-1.4-3.8-1.9-1.9-1.1-7.4-3.5-12-5.1-5.5-2-11-2.4-13.6-1-2.3,1.3-2.4,1.7-2.6,16.4l-.3,15.1-5,.3c-2.7.1-9.7.7-15.4,1.2-5.9.6-10.9.6-11.4.1-1.2-1.2-2.1-57.3-1.2-86.6l.7-25.5h14.9c10.7,0,15,.3,15.6,1.2ZM605,28.4c0,13.4-.3,16.2-1.7,17.8-1.5,1.6-3.5,1.8-22.7,1.8-11.6,0-21.8.5-22.6,1-2.2,1.3-2.7,15.1-.7,16.8.8.7,5.9,1.6,11.4,2l9.8.7.6,12c.7,11.9-.2,19.8-2.4,21.2-.6.4-5.2.9-10.1,1.2l-9.1.6-.1,14.2-.1,14.3,12.1.2c6.6.1,17,.3,22.9.3,6,.1,11.3.7,11.8,1.2.6.6.8,6.6.7,14.4l-.3,13.4h-82l.3-7.5c.2-4.2-.1-26.5-.7-49.5-1.2-44.5-.3-86.4,1.9-90.5l1.1-2.1,40,.3,39.9.3v15.9ZM699.9,13c8.5,1.6,15.6,5.6,23.5,13.3,4,4,7.6,7.9,7.9,8.7.4.8,1.6,2.8,2.7,4.5,1.1,1.6,2.2,3.7,2.6,4.5,3.6,9.1,6.4,20.3,6.4,25.7,0,7.1-3.7,21.2-7.1,27.3-.5.8-1.3,2.4-1.8,3.5-2.7,6.3-18.4,19.5-23,19.5-3.4,0-5.3,4.1-4.6,9.7.4,2.6,1.3,5.8,2.1,7s1.4,2.7,1.4,3.3c0,2.6,7.3,11.8,11.7,15.1,7.2,5.1,13.3,6.9,23.5,6.9,5.6,0,10.2.6,12.5,1.5,1.9.8,4.3,1.5,5.2,1.5,2.9,0,15.3,6.8,20.4,11.2,9.1,7.9,17.5,20.7,20.7,31.8,2.9,9.7,1.6,28.9-2.6,38.5-.7,1.6-1.5,3.7-1.9,4.5-1.7,4.3-8.6,13.9-12.7,17.5-4.4,4-9.4,7.5-10.9,7.5-2.3,0-6.8,4.1-7.4,6.8-.8,3.8,1.7,13.7,5,19.7,4.1,7.4,11.8,14.8,19.2,18.4,5.5,2.7,7.5,3.2,12.9,3,3.5-.1,6.6,0,6.8.2s.1,7.7-.2,16.6l-.5,16.3h-2.6c-8.5,0-23.3-3.7-32.6-8.2-7.4-3.6-9-4.7-15.3-10.4-8.3-7.4-14.9-16.2-19.2-25.4-1.2-2.5-2.8-5.8-3.5-7.3-.8-1.6-1.5-3.6-1.5-4.5s-.7-3-1.5-4.6c-.8-1.5-1.5-4.2-1.5-5.8,0-1.7-.7-5.7-1.5-8.9-1.1-4.2-1.5-9.7-1.3-19.2l.3-13.2,12.5-.5c13.8-.6,16.6-1.5,22-6.9,5.7-5.7,7-9.1,7-18.2s-1.8-14.3-6.7-19.4c-4.4-4.6-7.2-5.8-14.3-6.6-16.1-1.7-29.5-4.5-35.3-7.5-1.6-.8-3.7-1.4-4.7-1.4-.9,0-2.3-.7-3-1.5s-1.7-1.5-2.2-1.5c-1.4,0-10.9-7.4-14.4-11.1-8.6-9.5-14.8-21.3-19.8-37.9-1.6-5.2-4-42.4-2.9-44.3.2-.4,3.5-.7,7.3-.7,12.3,0,23.2-3.7,27.5-9.4,2.3-3,2.5-4.2,2.5-13,0-12-1.7-15.3-10-20-2.9-1.7-6.1-2-23.7-2.4l-20.4-.5.2,57.8.1,57.9-16.3-.3c-9-.1-16.6-.5-16.9-.9s-.4-34.1-.2-75l.3-74.2h37.3c20.5,0,39.6.4,42.5,1ZM606.4,59.2c1.4,1.9,1.6,6.7,1.6,31.8,0,18.5-.4,30-1,30.6s-3.3.7-7.3.2c-3.4-.4-10.1-1.1-15-1.4-12.5-.8-12.8-2-3.3-11.6,9-9.1,10-11.8,9.4-26.8-.4-8.7-.8-11.2-2.8-14.6-3.2-5.6-2.4-7,4.6-7.9,3.1-.4,6.7-1.1,7.8-1.5,3.3-1.4,4.4-1.1,6,1.2ZM684,60c2.8,0,4.6.8,6.9,2.9,4,3.8,4.1,7.9.4,12.1-2.4,2.5-4.3,3.2-13.1,5-5.7,1.1-10.7,1.8-11.2,1.5-.6-.4-1-4.6-1-9.5,0-8.5.1-8.9,2.8-11,2.2-1.8,3.5-2.1,7.1-1.6,2.4.3,6.1.6,8.1.6ZM84.6,104.5c.9,1.4,1.9,5.4,2.1,8.9.5,6,.4,6.5-2,8.1-1.4.9-3.8,1.5-5.4,1.3l-2.8-.3v-8.6c0-9.1,1.1-11.9,4.6-11.9,1,0,2.6,1.1,3.5,2.5ZM435.1,110.3c7.4,5,12,12,9.5,14.5-.7.8-4,1.7-7.2,2.1-6.4.8-9,1.9-14.5,6.3-4,3.2-5.9,3-8-.8-1.1-2.1-1.1-2.9.1-4.7,3.5-5.4,6-11.3,6-14.1,0-4.1,2.5-7.6,5.5-7.6,1.3,0,5.2,1.9,8.6,4.3ZM128.5,124.7c.7,1.9,1.3,26.9,1.8,70.6.2,21.3.5,26,1.7,26.8,1.5,1,52.3.5,77-.7l11.5-.5v52.5c0,28.8.4,52.8.8,53.3.5.4,10,.8,21.2.8,19.1,0,20.5-.1,21.8-1.9,1.2-1.7,1.5-16.3,1.9-92.5.3-69.8.7-91.1,1.7-92.9,1.2-2.2,1.5-2.2,15.9-2l14.7.3.3,100.3.2,100.4-3.1,4.6c-1.8,2.6-4,5.3-5,6s-2.4,1.8-3.1,2.5c-2.5,2.3-15.1,7.7-18.1,7.7-1.2,0-4.4.7-7.1,1.5-6.9,2.1-31.5,2-40.4-.1-3.7-.9-8-2.2-9.5-3-1.6-.8-3.3-1.4-3.8-1.4s-2.8-1.3-5.1-3c-2.2-1.6-4.8-3-5.6-3-1.8,0-7.2-4.8-7.2-6.4,0-.5-.7-1.8-1.7-2.8-1.4-1.6-1.7-6.5-2.3-41.6-.4-21.8-1.1-40.5-1.5-41.5-1.1-2.6-4.4-3-20.8-2.3-22.5.9-31.6,1.7-32.6,3-.5.6-1.1,13-1.5,27.6-.7,28.2-2.1,42-5,48.5-2,4.2-13.5,16.3-17.8,18.6-3.1,1.6-10.9,5.4-15.3,7.4-4.3,1.9-23,3.6-28.5,2.5-2.5-.5-6.2-.9-8.2-1-2,0-4.9-.6-6.5-1.4-1.5-.8-4.6-2.3-6.8-3.3s-4.4-2.4-4.8-3c-.4-.7-1.4-1.3-2.2-1.3-1.7,0-14.3-12.5-15.6-15.5-.5-1.1-2-3.9-3.3-6.1-1.3-2.3-2.6-5.9-2.9-8-.3-2.2-1.1-6.9-1.7-10.5-.9-5.5-.8-8.2.9-17.5,2.1-11.4,4-17.7,5.9-19.6.7-.7,1.2-1.5,1.2-1.9,0-2.7,15.6-17.8,24.4-23.7,11.9-7.9,29.3-15.6,38.6-17.2,5.6-.9,11-3.3,13.3-5.8,1.6-1.7,1.7-4.5,1.5-31.3l-.3-29.4-4,.4c-2.2.2-5.2.9-6.7,1.7s-3.9,1.4-5.3,1.4c-1.5,0-4.1.6-5.8,1.4-1.8.8-4.5,1.6-6.2,1.9-1.6.3-4.5,1-6.2,1.6-8.4,2.9-10,3.3-13.5,4.1-2.1.4-4.3,1.2-5,1.7-.7.6-2.6,1.3-4.3,1.6-3.5.6-8.9,2.4-12.8,4.3-1.6.8-3.7,1.4-4.7,1.4-2.5,0-6-5.1-6-8.8,0-1.7-1.1-5.3-2.5-8-1.4-2.8-2.5-6.3-2.5-8,0-3.4,3.4-8.2,5.9-8.2.9,0,2.6-.7,3.7-1.5,1-.8,2.9-1.5,4.2-1.5s3.3-.5,4.5-1.2c1.2-.6,4-1.5,6.2-1.9s5.4-1.1,7-1.7c1.7-.6,4.6-1.5,6.5-2.2s5.1-1.5,7-2c1.9-.4,4.6-1.2,6-1.7,4.8-2,9.5-3.5,13-4.3,3.3-.8,5-1.3,13-4,1.9-.7,5.1-1.6,7-2,7.7-1.9,18.3-5.3,23.5-7.6,4.3-1.9,8.2-1.7,9,.3ZM407.7,139.7c1.9,1.8,1.9,3.4,1.2,68.3-.4,36.6-.7,83.7-.8,104.7l-.1,38.3h-12.8c-10.4,0-13.2-.3-15.2-1.7-3.1-2.2-5.9-5.4-6-7,0-.6-.6-1.8-1.2-2.5-1.1-1.1-14.5-27.7-18.1-35.8-1.9-4.3-2.8-5.1-4.3-3.9-1,.8-1.2,6.1-.7,26,.4,14.7.2,24.9-.3,24.9-2.2.1-31,.1-31.9.1-1.1-.1-1.1-184.9.1-186,.6-.7,5.4,4.8,5.4,6.3,0,1.8,12.8,27.9,19.6,40.1,1.8,3.3,3.8,6.9,4.4,8,.5,1.1,1.4,2.7,1.9,3.5s1.2,2.2,1.6,3c.3.8,2.1,4.2,3.9,7.5,1.9,3.3,6.3,11.6,9.7,18.4,3.5,6.8,7,12.6,7.7,12.8,3.5,1.4,3.7-.7,4.3-63.1.4-33.8,1-61.9,1.3-62.5.5-.7,5.5-1.1,14.5-1.1,11.8,0,14.2.3,15.8,1.7ZM456.8,139.2c.7.9,1.2,19.3,1.4,52.8.4,53,.7,57,4.4,57,2.2,0,12.8-10.6,15.2-15.1,1.3-2.4,2.7-5.1,3.1-5.9.8-1.4,1.8-3.9,5.1-13,.7-1.9,1.6-5.5,2-8s1.2-5.8,1.9-7.3c.6-1.6,1.1-4.3,1.1-6.1s.4-4.6.9-6.2,1.2-4.6,1.6-6.7l.6-3.8,15.2.3,15.2.3-.3,13c-.2,7.3-1,15.1-1.8,17.9-.8,2.7-1.4,6.7-1.4,8.7,0,2.1-.4,4-.9,4.4-.5.3-1.3,2-1.6,3.8-.4,1.7-1.3,4.3-2,5.7s-2.9,5.7-4.7,9.6c-4.2,8.6-11.6,19.9-15.7,23.8-1.7,1.7-3.1,3.6-3.1,4.3,0,.8,2.1,3.5,4.8,6.2,7.7,7.7,10.3,11.3,16.1,22.1,2.5,4.7,6,14.1,7,19,.4,1.9,1.3,5.1,1.9,7,1.6,5.5,3.4,14.9,3.9,21.7l.5,6.2-15.8.3c-8.8.2-16.4,0-17-.5-1.1-.7-1.5-2.6-3.4-15.2-1.1-7.7-3.3-15.2-4.8-16.7-.7-.7-1.2-2.7-1.2-4.6,0-6.4-11.6-20.3-19.8-23.7-2.5-1.1-3.4-1.1-5.2.2-2.1,1.5-2.1,1.9-2,29.2.1,15.2.1,28.4.1,29.3-.1,1.6-1.5,1.8-15,1.8h-14.9l-1.7-2.7c-1.7-2.5-1.7-7.7-1-92.7.4-49.6,1-95.7,1.4-102.6.6-12,.7-12.5,3.1-13.7,3.4-1.7,25.4-1.8,26.8-.1ZM315.9,147.8c1.7,2.7,3.1,5.8,3.1,7,0,2-3.4,5.2-5.5,5.2-1.2,0-3.7-8.2-3.1-10.2.3-.7.7-2.5,1-4.1.4-1.5.8-2.7,1-2.7s1.8,2.2,3.5,4.8ZM669.5,163.9c1.8,3.6.5,4.8-2.6,2.3-1.4-1.2-2-2.5-1.6-3.5,1-2.5,2.5-2.1,4.2,1.2ZM479.9,174.7c2.2.5,2.3.9,1.7,5.5-1.3,9.5-6.6,28-8.2,28.5s-2.4-5.6-2.4-19.8c0-15.1.8-16.4,8.9-14.2ZM666.7,177.8c.8.5,1.5,5.8,1.9,16l.7,15.1-2.8,1.1c-1.6.6-13.3,1.4-25.9,1.8l-23.1.7-.3,15.2-.3,15.3h19.5c16.8,0,19.5.2,20.7,1.7,1.5,1.7,2.6,27.2,1.5,31.9l-.6,2.4-20.3.2-20.2.3-.3,16.6c-.2,13.2,0,16.9,1.1,17.8,1.1.8,13.2,1.1,43.7,1.1h42.3l-.8,7.3c-.4,3.9-1.1,11.8-1.4,17.5l-.6,10.4h-158.6l-.6-85c-.3-46.8-.3-85.8,0-86.6.6-1.4,7.2-1.6,61.9-1.6,33.7,0,61.8.4,62.5.8ZM150.2,201.7c5.4,5.3,5.9,6.9,2.3,8.3-5.8,2.2-11.7-4-10.1-10.6.9-3.5,2.4-3,7.8,2.3ZM254.3,252.5c-.1,29.5-.4,54.9-.8,56.5-1.3,6.1-9.9,9-16.5,5.7-4.5-2.3-4.9-5.5-4.9-46.7-.1-31.3-.4-39.7-1.6-44.5-.9-3.2-1.4-6.4-1.1-7.1s3.1-3.2,6.3-5.5,7.8-6,10.2-8.1,5.3-3.8,6.5-3.8h2.1l-.2,53.5ZM362.8,211.8c.3,5.4-.9,6.7-3.6,4-1.6-1.6-1.5-7.1,0-8.6,2.2-2.2,3.3-.7,3.6,4.6ZM530,266.6c0,23.6-.2,28.4-1.4,28.4-2.2,0-17.6-23.4-17.6-26.7,0-4.4,16.2-31.9,18-30.8.6.4,1,11.5,1,29.1Z"
  /><path
    class="cls-1"
    d="M90,265.5c-1.4.7-4.5,2.1-7,3.1-6.8,2.6-17.1,7.6-20.5,9.9-4.7,3.2-11.6,9.8-12.6,12-.5,1.1-1.3,2.7-1.8,3.5-1.2,2.1-3.1,10.5-3.1,13.9,0,1.6.5,5.3,1.2,8.1.9,4.1,2.1,6,5.7,9.1,2.4,2.2,5.6,4.2,7,4.5s4.6,1.3,6.9,2.2c4.1,1.4,4.8,1.4,10-.2,12.9-4.1,17.5-7.6,20.6-15.4,1.3-3.5,1.6-8.2,1.6-26,0-21.5,0-21.9-2.3-24-2.6-2.5-2.4-2.5-5.7-.7ZM84.8,286c2,3.9,1.1,21.8-1.4,26-3.7,6.3-11.9,8.7-18.7,5.4-3.4-1.6-6.7-6.7-6.7-10.2,0-7.5,6.7-16.5,16-21.3,6.5-3.3,9-3.3,10.8.1Z"
  /></svg>
