<?xml version="1.0" standalone="no" ?>
<!DOCTYPE svg PUBLIC "-//W3C//DTD SVG 20010904//EN"
  "http://www.w3.org/TR/2001/REC-SVG-20010904/DTD/svg10.dtd">
<svg
  version="1.0"
  xmlns="http://www.w3.org/2000/svg"
  width="900.000000pt"
  height="819.000000pt"
  viewBox="0 0 900.000000 819.000000"
  preserveAspectRatio="xMidYMid meet"
>
<metadata>
Created by potrace 1.10, written by Peter Selinger 2001-2011
</metadata>
<g
    transform="translate(0.000000,819.000000) scale(0.100000,-0.100000)"
    fill="#ffeb00"
    stroke="none"
  >
<path
      d="M3245 7861 c-37 -16 -118 -95 -131 -128 -11 -26 -14 -139 -14 -572 0
-297 -3 -546 -6 -555 -9 -24 -36 -19 -85 14 -92 62 -164 32 -434 -180 -159
-125 -300 -260 -375 -360 -18 -25 -41 -52 -50 -60 -39 -34 -244 -315 -311
-426 -84 -137 -183 -349 -232 -497 -142 -422 -157 -509 -157 -927 0 -408 11
-552 61 -785 31 -147 136 -430 228 -612 142 -284 238 -427 428 -645 231 -263
378 -360 461 -302 12 8 32 14 45 12 22 -3 22 -6 28 -203 4 -128 12 -229 23
-280 59 -276 172 -486 360 -668 108 -106 191 -166 316 -231 217 -112 299 -132
600 -140 355 -10 510 18 742 134 411 206 714 608 717 953 1 50 4 57 20 57 11
0 40 -17 65 -39 80 -69 129 -62 316 42 290 163 591 406 807 653 185 212 307
386 378 539 52 110 57 132 45 175 -13 44 -87 120 -117 120 -13 0 -23 3 -23 8
0 15 38 63 135 172 109 123 129 148 150 199 21 47 19 73 -10 115 -14 20 -25
43 -25 51 0 8 24 30 53 48 29 19 68 53 85 75 65 81 66 88 70 417 5 358 -6 504
-54 695 -40 157 -52 196 -107 345 -22 61 -46 128 -54 150 -26 71 -130 277
-201 396 -169 281 -433 583 -697 794 -293 234 -554 385 -665 385 -31 0 -51 -8
-80 -31 -46 -37 -72 -35 -81 6 -4 17 -7 234 -8 483 -1 369 -4 458 -15 480 -23
45 -110 120 -147 127 -19 3 -174 5 -345 3 l-312 -3 -48 -41 c-27 -22 -59 -60
-71 -84 -22 -42 -23 -55 -23 -285 0 -286 -12 -411 -41 -440 -18 -19 -31 -20
-175 -17 -93 2 -163 8 -174 14 -27 17 -30 54 -39 388 -8 325 -8 322 -64 393
-56 72 -54 72 -417 74 -179 2 -334 -1 -345 -6z m705 -533 c0 -234 3 -433 6
-442 8 -22 566 -24 619 -2 l35 15 0 428 0 428 372 -1 373 -1 -1 -39 c-3 -88
-22 -2002 -20 -2039 l1 -40 -51 -6 c-28 -4 -60 -11 -72 -18 -11 -6 -33 -11
-47 -11 -14 0 -35 -5 -46 -10 -10 -6 -38 -14 -61 -19 -24 -5 -56 -14 -73 -19
-16 -6 -57 -18 -90 -27 -33 -9 -81 -23 -106 -31 -26 -7 -55 -14 -65 -14 -11 0
-32 -7 -48 -15 -15 -8 -37 -15 -47 -15 -18 0 -19 13 -19 334 0 262 -3 336 -13
344 -24 20 -188 42 -312 42 -137 0 -290 -23 -317 -47 -17 -15 -18 -46 -18
-448 l0 -431 -52 -12 c-88 -21 -122 -30 -153 -40 -16 -6 -50 -15 -75 -21 -25
-7 -67 -18 -95 -27 -27 -8 -68 -19 -90 -24 -22 -4 -53 -12 -70 -18 -53 -18
-119 -34 -150 -35 l-30 -2 -6 380 c-5 272 -12 2181 -9 2300 0 6 128 10 365 10
l365 0 0 -427z m1686 -633 c9 -8 24 -15 33 -15 10 0 24 -7 31 -15 7 -8 20 -15
30 -15 10 0 23 -7 30 -15 7 -8 21 -15 31 -15 10 0 21 -5 24 -11 4 -5 17 -14
28 -20 28 -12 53 -27 98 -61 20 -16 40 -28 43 -28 6 0 120 -79 146 -102 8 -7
44 -35 80 -63 36 -27 78 -61 94 -75 61 -53 254 -248 312 -315 65 -75 206 -260
217 -285 4 -8 16 -28 27 -45 11 -16 24 -39 30 -50 6 -11 19 -33 29 -50 31 -48
129 -249 169 -345 8 -19 21 -48 28 -63 8 -16 14 -36 14 -46 0 -9 6 -25 14 -36
7 -11 16 -33 18 -50 3 -16 11 -46 18 -65 31 -84 38 -108 49 -150 7 -25 16 -63
20 -85 5 -22 13 -60 19 -85 14 -55 33 -373 32 -530 -1 -157 -23 -387 -38 -402
-10 -10 -74 -14 -235 -16 -253 -4 -264 -2 -247 57 17 58 24 395 10 506 -6 55
-15 143 -20 195 -4 52 -13 108 -19 123 -6 16 -11 44 -11 63 0 19 -7 51 -15 71
-8 19 -15 47 -15 62 -1 14 -7 37 -15 51 -8 14 -14 37 -15 51 0 14 -7 34 -15
45 -8 10 -15 28 -15 40 0 11 -7 29 -15 40 -8 10 -15 29 -15 40 0 12 -7 27 -15
34 -8 7 -15 18 -15 25 0 12 -54 122 -83 170 -13 21 -54 88 -74 120 -7 11 -15
27 -19 35 -27 56 -210 277 -324 391 -116 116 -322 288 -347 289 -4 1 -44 29
-88 63 l-80 63 -8 79 c-7 78 0 432 10 447 7 13 44 9 59 -7z m-2646 -262 c0
-71 5 -195 10 -278 l10 -150 -163 -160 c-90 -88 -183 -182 -206 -209 -52 -60
-191 -243 -191 -251 0 -4 -11 -21 -24 -38 -40 -53 -156 -270 -156 -292 0 -7
-7 -18 -15 -25 -8 -7 -15 -21 -15 -30 0 -10 -6 -31 -14 -47 -13 -26 -20 -43
-56 -143 -7 -19 -15 -53 -19 -75 -4 -23 -11 -47 -16 -55 -5 -8 -12 -35 -16
-60 -4 -25 -12 -70 -17 -100 -39 -201 -53 -467 -32 -611 6 -46 16 -122 20
-169 4 -47 13 -98 19 -113 6 -16 11 -43 11 -62 0 -19 5 -46 11 -62 7 -15 15
-46 19 -68 4 -22 13 -56 20 -75 40 -111 49 -134 84 -213 8 -17 17 -39 20 -47
3 -8 10 -23 16 -32 24 -42 30 -55 44 -83 7 -16 30 -54 50 -84 20 -29 36 -55
36 -56 0 -17 255 -360 314 -423 23 -24 41 -46 41 -50 0 -4 -13 -34 -29 -67
-27 -56 -34 -73 -70 -158 -28 -68 -46 -133 -46 -169 0 -55 -8 -68 -42 -68 -35
0 -131 73 -214 163 -98 106 -189 211 -227 261 -21 28 -42 53 -47 54 -6 2 -10
8 -10 14 0 6 -13 27 -28 47 -26 33 -109 167 -125 201 -4 8 -16 29 -27 45 -18
28 -22 35 -35 68 -3 6 -9 19 -14 27 -5 8 -12 22 -15 30 -3 8 -10 22 -15 30
-21 34 -71 146 -71 160 0 8 -7 24 -15 34 -8 11 -15 29 -15 41 0 12 -7 30 -15
41 -8 10 -15 31 -15 45 0 14 -7 34 -15 45 -8 10 -15 30 -15 42 0 13 -6 36 -14
50 -19 38 -36 105 -46 186 -5 38 -12 76 -16 85 -7 19 -22 235 -31 465 -6 178
9 487 29 566 6 25 14 65 17 90 4 25 13 55 19 67 7 12 12 34 12 50 1 15 7 39
15 53 8 14 14 36 15 51 0 14 5 30 11 36 6 6 14 26 19 44 10 39 27 89 48 139 8
19 20 49 27 65 66 166 219 443 271 490 6 6 20 26 32 45 11 19 31 46 43 59 12
13 45 54 73 90 28 37 69 89 91 116 62 78 233 245 305 300 36 27 70 54 75 60 6
6 27 22 47 36 21 13 38 27 38 32 0 4 5 7 11 7 6 0 37 20 69 45 32 25 63 45 68
45 5 0 15 7 22 15 7 8 25 15 41 15 l29 0 0 -127z m2558 -376 c31 -29 73 -63
92 -77 372 -257 615 -531 803 -905 97 -194 153 -361 186 -555 34 -197 41 -301
41 -567 l0 -258 32 -63 c24 -47 29 -65 20 -71 -6 -4 -200 -13 -430 -19 -229
-7 -498 -17 -597 -23 l-179 -11 -23 26 c-22 26 -23 33 -23 224 1 713 -9 1527
-18 1595 -8 54 -21 96 -43 137 -36 64 -36 62 12 138 25 38 38 161 39 355 0
151 2 153 88 74z m-1086 -44 c28 -29 37 -103 37 -323 1 -128 5 -176 17 -211
10 -26 14 -54 11 -63 -9 -23 -64 -43 -360 -133 -96 -28 -91 -43 -97 298 -5
322 -1 400 25 429 23 25 47 28 207 26 127 -1 140 -3 160 -23z m-1358 -465 c8
-355 13 -415 42 -491 18 -47 18 -49 1 -62 -19 -13 -78 -34 -157 -55 -24 -7
-75 -27 -112 -46 -55 -28 -77 -47 -113 -95 -25 -34 -46 -71 -46 -83 -5 -68 12
-148 76 -351 19 -60 44 -143 55 -183 24 -84 82 -163 146 -199 67 -39 93 -35
444 65 149 43 281 82 495 147 50 15 117 36 150 45 33 10 98 29 145 44 219 68
237 68 253 7 4 -18 7 -222 5 -454 -4 -514 4 -483 -127 -523 -327 -99 -440
-140 -606 -219 -182 -87 -266 -137 -435 -258 -72 -51 -243 -222 -318 -317 -78
-99 -98 -120 -117 -120 -6 0 -39 42 -73 92 -35 51 -88 125 -118 163 -73 93
-212 304 -254 385 -18 36 -38 71 -43 78 -32 41 -141 349 -158 446 -48 281 -52
328 -46 606 6 268 11 308 65 510 78 294 205 545 405 798 78 99 107 130 275
296 105 102 134 126 145 117 11 -8 15 -81 21 -343z m2209 -81 c29 -45 38 -324
37 -1232 l-1 -870 28 2 c15 1 102 9 193 18 196 18 272 21 838 36 238 6 507 8
598 4 146 -6 164 -9 164 -24 0 -20 -146 -175 -463 -493 l-218 -218 -192 0
c-106 -1 -239 -5 -297 -11 -58 -5 -199 -13 -315 -18 -115 -4 -223 -13 -238
-20 -16 -6 -41 -11 -56 -11 l-28 0 -6 -337 c-11 -645 -28 -1066 -43 -1084 -8
-8 -14 -23 -14 -31 0 -9 -7 -21 -15 -28 -8 -7 -15 -18 -15 -24 0 -48 -136
-237 -244 -340 -84 -80 -246 -196 -273 -196 -6 0 -16 -7 -23 -15 -7 -8 -20
-15 -29 -15 -9 0 -22 -5 -29 -12 -12 -12 -67 -34 -117 -47 -17 -4 -39 -12 -50
-18 -65 -34 -160 -43 -437 -43 -343 0 -388 8 -593 111 -88 43 -166 91 -193
116 -7 7 -17 13 -22 13 -25 0 -249 245 -273 300 -4 8 -11 22 -16 30 -5 8 -12
22 -15 30 -3 8 -10 22 -15 30 -8 14 -15 29 -55 123 -9 21 -16 45 -16 55 0 9
-6 37 -14 62 -24 75 -46 249 -46 355 0 100 19 230 46 315 8 25 14 54 14 65 1
11 7 29 15 39 8 11 15 27 15 35 0 16 59 137 90 186 11 17 23 37 27 45 33 73
251 301 380 398 45 34 84 62 87 62 3 0 24 13 48 29 92 61 229 131 385 197 21
9 51 23 66 30 16 8 35 14 44 14 8 0 27 6 41 14 35 17 88 36 132 46 34 8 52 13
130 40 19 7 56 16 82 20 26 5 56 13 67 19 11 6 36 11 56 11 20 0 45 5 56 10
18 10 19 28 19 629 0 574 -1 619 -17 625 -22 9 -122 -3 -148 -17 -11 -6 -36
-14 -55 -18 -33 -7 -49 -11 -130 -39 -19 -7 -51 -16 -70 -20 -19 -4 -50 -13
-67 -19 -18 -6 -48 -16 -65 -22 -18 -6 -49 -15 -68 -19 -19 -4 -50 -13 -67
-19 -18 -6 -48 -16 -65 -22 -18 -6 -49 -15 -68 -19 -19 -4 -51 -13 -70 -20
-80 -27 -97 -32 -130 -40 -19 -4 -48 -13 -65 -18 -16 -6 -57 -18 -90 -27 -102
-29 -159 -46 -190 -57 -16 -6 -48 -13 -70 -17 -22 -4 -50 -13 -62 -19 -12 -7
-39 -12 -61 -12 -35 0 -41 4 -55 33 -8 17 -20 57 -27 87 -6 30 -16 69 -22 85
-5 17 -13 47 -18 68 -4 21 -13 44 -19 50 -6 6 -11 23 -11 37 0 14 -7 35 -15
46 -8 10 -15 29 -15 42 0 12 -7 39 -15 59 -8 19 -18 66 -21 103 l-7 67 37 21
c21 12 45 22 55 22 9 0 26 7 37 15 10 8 31 15 46 15 15 0 39 5 55 11 15 6 44
15 63 19 19 5 50 13 68 19 17 6 47 16 65 22 17 6 50 15 72 19 22 4 56 13 75
20 19 7 51 18 70 25 34 12 89 28 160 45 33 7 48 12 133 41 17 6 50 15 72 19
74 16 130 32 158 46 16 8 39 14 52 14 14 0 39 6 57 14 18 8 60 22 93 31 33 10
75 24 93 31 18 8 42 14 53 14 12 0 33 6 47 14 27 13 81 29 155 45 21 5 44 14
50 20 6 6 25 11 41 11 17 1 42 7 56 15 14 8 39 14 56 15 16 0 39 7 50 15 10 8
31 15 46 15 15 0 42 6 60 14 18 7 60 21 93 31 124 36 161 48 180 58 63 33 118
34 138 4z m1705 -2620 c2 -19 -12 -53 -47 -111 -28 -46 -51 -87 -51 -90 0 -4
-5 -12 -11 -19 -10 -11 -83 -121 -104 -155 -5 -10 -12 -19 -15 -22 -3 -3 -18
-23 -33 -46 -15 -22 -35 -49 -45 -60 -9 -10 -35 -41 -57 -69 -71 -90 -205
-228 -320 -330 -72 -64 -309 -245 -321 -245 -3 0 -23 -13 -43 -28 -20 -16 -43
-32 -51 -35 -8 -4 -28 -16 -45 -27 -16 -11 -39 -24 -50 -30 -11 -6 -33 -19
-50 -30 -48 -30 -132 -70 -150 -70 -9 0 -25 5 -36 10 -18 10 -19 24 -19 260
l0 248 39 31 c21 17 42 31 45 31 10 0 236 172 314 239 161 137 181 147 312
155 58 3 133 11 165 16 33 5 81 10 107 10 l46 0 189 191 c103 104 190 195 192
200 7 21 36 3 39 -24z m-978 -307 c21 -15 -8 -40 -400 -350 -45 -36 -95 -76
-111 -88 -15 -13 -33 -21 -39 -17 -11 7 -15 371 -4 400 14 36 64 48 229 55
249 11 309 10 325 0z"
    />
<path
      d="M4470 2463 c-25 -8 -58 -21 -73 -29 -16 -8 -35 -14 -42 -14 -8 0 -29
-6 -47 -14 -18 -8 -58 -24 -88 -36 -68 -27 -225 -104 -265 -130 -16 -11 -37
-23 -45 -27 -77 -34 -290 -252 -290 -296 0 -8 -7 -20 -15 -27 -8 -7 -15 -20
-15 -30 0 -9 -8 -32 -17 -51 -25 -50 -25 -304 0 -342 9 -14 17 -35 17 -45 0
-11 7 -25 15 -32 8 -7 15 -18 15 -24 1 -23 133 -146 158 -146 5 0 15 -7 22
-15 7 -8 20 -15 30 -15 9 0 32 -7 50 -16 47 -24 298 -23 354 0 21 9 47 16 58
16 11 0 32 6 46 14 15 7 47 23 72 34 51 24 92 59 135 116 61 80 59 67 62 605
3 359 0 497 -8 507 -14 18 -71 16 -129 -3z m9 -167 c9 -11 11 -116 9 -403 l-3
-388 -29 -48 c-71 -120 -234 -185 -437 -175 -104 5 -174 30 -239 84 -61 52
-110 172 -110 273 0 244 188 447 555 598 39 16 93 39 120 50 59 25 118 29 134
9z"
    />
<path
      d="M2268 7379 c-45 -10 -138 -56 -201 -99 -47 -32 -129 -124 -159 -179
-10 -17 -25 -34 -35 -37 -62 -21 -137 -68 -196 -123 -67 -63 -142 -154 -167
-202 -7 -13 -57 -67 -110 -119 -62 -60 -104 -110 -115 -135 -9 -22 -40 -65
-69 -95 -76 -78 -114 -138 -122 -189 -6 -36 -19 -57 -65 -107 -77 -83 -92
-115 -93 -195 -1 -66 -2 -68 -52 -121 -28 -29 -63 -73 -79 -97 -24 -39 -27
-51 -21 -97 6 -52 6 -53 -43 -106 -26 -29 -56 -69 -66 -88 -21 -39 -23 -118
-5 -164 10 -27 7 -34 -45 -101 -67 -87 -77 -133 -50 -220 18 -56 18 -56 -4
-83 -91 -113 -108 -175 -67 -253 14 -28 26 -57 26 -65 0 -7 -13 -35 -29 -61
-17 -27 -35 -69 -42 -95 -17 -63 7 -126 72 -192 l49 -49 52 9 c29 4 105 7 168
7 116 -1 140 -5 258 -52 82 -33 103 -29 162 29 65 66 81 99 83 173 1 49 -3 70
-21 98 -29 48 -28 57 13 135 28 53 35 77 35 123 0 35 -6 65 -15 77 -25 32 -17
62 33 127 27 34 59 87 72 117 20 49 22 65 16 152 l-6 98 56 52 c31 29 67 75
81 103 22 43 25 57 19 115 l-6 66 46 45 c26 24 55 64 66 88 11 24 53 79 94
122 62 67 76 89 94 145 11 36 20 76 20 88 0 14 13 29 43 45 111 64 269 206
394 358 27 33 63 61 98 79 37 18 78 51 123 99 37 40 95 94 129 119 34 25 74
63 89 85 38 58 28 86 -65 185 -64 67 -79 89 -85 124 -14 92 -108 211 -199 253
-45 20 -98 23 -159 8z m147 -117 c65 -54 105 -114 105 -157 0 -15 -10 -47 -22
-71 l-21 -43 24 -20 c13 -11 29 -20 35 -21 7 0 25 -7 40 -15 16 -8 45 -15 65
-15 68 0 91 -63 37 -103 -25 -19 -28 -19 -61 -3 -19 9 -40 16 -45 16 -6 0 -40
14 -77 30 -37 17 -73 30 -80 30 -8 0 -26 10 -40 23 -29 24 -28 27 15 107 26
49 25 70 -10 122 -46 69 -76 71 -158 13 -31 -23 -42 -37 -42 -57 0 -16 5 -28
10 -28 6 0 13 -8 17 -17 3 -10 19 -34 35 -54 15 -20 28 -40 28 -44 0 -26 152
-185 177 -185 31 0 73 -31 73 -54 0 -26 -25 -51 -98 -94 -73 -45 -92 -43 -92
8 0 51 -48 142 -137 262 -72 98 -124 148 -153 148 -21 0 -45 34 -35 50 6 10
142 114 180 137 99 62 182 75 230 35z m-473 -342 c19 -16 39 -41 42 -55 14
-54 -35 -85 -75 -49 -34 31 -67 20 -125 -37 l-54 -54 61 -62 c34 -35 65 -63
70 -63 4 0 33 27 64 59 33 35 62 58 71 54 36 -14 21 -74 -30 -122 -40 -38 -34
-67 26 -128 31 -31 61 -53 73 -52 11 0 37 20 58 46 34 41 38 51 32 82 -4 20
-13 46 -21 58 -22 34 -18 62 11 69 28 7 68 -18 110 -68 46 -54 32 -80 -126
-239 -47 -48 -100 -94 -116 -103 -17 -8 -40 -31 -52 -49 -20 -32 -25 -34 -123
-50 -57 -10 -131 -17 -164 -17 -45 0 -68 -5 -85 -18 -30 -25 -21 -42 41 -75
44 -24 63 -28 109 -25 l56 3 -1 -30 c-2 -34 -72 -144 -111 -175 -35 -27 -53
-11 -53 49 -1 51 -14 75 -51 91 -13 6 -53 35 -89 65 -36 30 -70 55 -77 55 -6
0 -13 4 -15 8 -9 22 -84 55 -128 56 -48 1 -80 18 -80 42 0 24 47 90 91 128
l43 36 23 -22 c14 -13 23 -33 23 -53 0 -31 6 -39 85 -102 38 -31 78 -42 88
-25 5 6 -42 118 -64 152 -5 8 -14 26 -20 40 -5 13 -24 37 -41 52 -27 24 -30
32 -25 63 7 43 61 115 87 115 9 0 22 -6 27 -12 13 -17 43 -151 43 -192 0 -45
31 -96 71 -118 29 -16 47 -18 119 -13 109 7 179 24 207 48 l22 20 -20 38 c-10
21 -61 80 -112 131 -136 138 -152 150 -195 152 -45 2 -62 12 -62 34 0 22 137
180 211 245 65 57 98 61 151 17z m158 -156 c0 -27 -12 -31 -30 -9 -10 12 -10
18 0 30 16 19 30 10 30 -21z m-370 -375 c0 -18 -35 -5 -38 14 -3 16 -1 17 17
7 12 -6 21 -15 21 -21z m-592 -338 c7 -4 16 -21 21 -37 8 -33 78 -90 156 -130
28 -14 77 -41 110 -60 33 -18 69 -38 81 -43 36 -16 94 -77 94 -99 0 -40 -33
-47 -255 -52 l-210 -5 -3 -26 c-2 -21 2 -28 20 -32 13 -3 48 -15 78 -27 30
-12 71 -25 91 -29 19 -4 42 -11 49 -16 7 -5 38 -9 69 -9 l56 -1 -1 -37 c-1
-26 -13 -52 -46 -95 -24 -32 -50 -58 -58 -58 -7 0 -25 19 -39 43 -30 50 -78
85 -181 137 -41 20 -83 42 -94 47 -41 22 -127 38 -146 28 -27 -15 -38 -12 -50
11 -15 27 2 71 48 120 39 43 63 48 296 58 106 4 151 10 154 18 2 7 -5 16 -15
19 -23 7 -60 23 -143 63 -73 35 -124 39 -152 14 -17 -15 -21 -15 -29 -3 -19
30 6 118 58 203 6 9 25 9 41 -2z m-285 -653 c18 -18 48 -41 67 -50 71 -34 109
-48 128 -48 11 0 33 -7 48 -15 16 -8 36 -15 45 -15 21 0 125 -56 147 -79 33
-35 52 -83 52 -132 0 -59 -16 -92 -83 -177 -37 -47 -54 -61 -66 -56 -9 4 -34
11 -56 16 -22 6 -62 16 -90 23 -103 28 -232 47 -297 44 -89 -4 -95 2 -78 83
24 116 59 136 129 73 21 -19 43 -35 48 -35 6 0 16 -6 22 -14 6 -8 26 -16 44
-19 52 -9 140 -33 171 -46 17 -6 50 -11 75 -9 40 3 46 7 67 43 28 49 31 104 6
133 -10 12 -61 38 -113 58 -52 20 -101 40 -110 44 -8 4 -44 15 -78 24 -61 15
-64 15 -91 -4 -61 -43 -85 -18 -75 77 12 118 33 137 88 81z m-152 -663 c24
-22 50 -35 67 -35 15 -1 54 -7 87 -15 33 -8 107 -15 164 -15 96 0 105 2 133
25 59 50 82 26 72 -77 -7 -77 -26 -128 -48 -128 -7 0 -23 11 -36 26 -31 32
-103 64 -146 64 -49 0 -67 -40 -68 -150 l-1 -85 92 -3 c84 -2 94 -1 105 18 19
30 66 27 74 -5 14 -58 -20 -225 -46 -225 -3 0 -26 20 -52 45 -37 35 -55 45
-81 45 -19 0 -52 6 -73 14 -22 7 -90 16 -151 20 l-113 7 -35 -35 c-20 -20 -39
-36 -44 -36 -5 0 -17 12 -26 27 -19 29 -17 112 5 186 15 50 49 52 80 2 21 -34
23 -35 85 -35 75 0 82 6 96 89 16 91 3 117 -65 125 -52 7 -98 -3 -111 -23 -10
-17 -46 -13 -61 7 -26 33 -11 161 22 195 15 14 37 6 75 -28z"
    />
<path
      d="M7793 3661 c-68 -17 -152 -97 -189 -178 -35 -77 -72 -217 -80 -303
-4 -51 -15 -92 -34 -130 -31 -60 -120 -261 -175 -394 -19 -47 -40 -107 -46
-135 -8 -40 -23 -64 -72 -118 -85 -93 -137 -164 -195 -269 -55 -99 -79 -127
-144 -166 -67 -41 -148 -119 -244 -235 -73 -88 -92 -104 -127 -114 -98 -26
-335 -191 -391 -272 -58 -85 -52 -110 56 -243 55 -67 84 -125 70 -138 -3 -3
-21 -6 -39 -6 -41 0 -89 -34 -127 -88 -37 -55 -34 -96 13 -169 62 -97 158
-163 234 -163 94 0 220 75 284 168 36 54 38 61 41 150 3 64 8 92 16 92 7 0 40
-11 74 -25 140 -57 278 -16 385 112 54 65 67 100 67 183 0 84 11 94 67 56 49
-34 79 -33 136 5 61 40 95 83 142 174 21 41 45 77 55 80 27 9 112 97 127 132
7 18 13 48 13 67 0 33 4 37 55 61 61 29 122 93 157 163 17 35 23 64 23 114 l0
68 55 45 c59 49 100 107 100 143 0 14 18 44 41 70 48 54 87 134 135 275 30 89
32 103 23 155 -5 31 -9 58 -9 59 0 1 21 28 46 59 73 89 93 184 54 257 -27 50
-26 64 15 127 44 69 44 96 -1 148 -55 65 -80 74 -177 66 l-82 -6 -54 42 c-29
23 -73 51 -97 61 -49 22 -153 32 -201 20z m161 -119 c53 -21 90 -56 121 -116
11 -21 26 -41 34 -44 7 -3 43 10 79 29 110 56 228 43 162 -19 -20 -18 -135
-78 -223 -116 -21 -9 -58 -16 -82 -16 l-45 0 0 64 c0 59 -2 66 -31 90 -26 22
-40 26 -95 26 -63 0 -64 -1 -88 -37 -42 -65 -46 -143 -8 -143 9 0 37 -6 62
-14 25 -8 70 -21 100 -29 30 -8 80 -22 111 -31 74 -21 148 -21 164 0 7 10 27
17 51 18 l39 1 -3 -57 c-1 -31 -8 -81 -16 -110 -11 -45 -17 -53 -38 -56 -18
-2 -33 6 -52 29 -50 59 -68 67 -182 85 -60 9 -123 23 -141 30 -49 22 -137 18
-183 -8 -56 -33 -65 -20 -51 74 12 84 28 149 47 195 8 17 14 35 14 40 0 21 42
90 67 110 36 29 117 31 187 5z m-243 -481 c117 -52 119 -116 2 -109 l-57 3
-20 -40 c-10 -22 -21 -58 -23 -80 -6 -46 14 -69 85 -100 41 -18 43 -18 63 1
12 10 30 40 42 66 21 49 62 73 78 46 8 -13 2 -77 -11 -113 -16 -42 18 -75 113
-114 47 -19 81 12 111 100 13 37 13 45 0 65 -8 12 -21 25 -29 27 -7 3 -25 22
-41 42 -23 30 -25 38 -13 46 24 15 80 10 124 -12 76 -38 83 -95 27 -219 -25
-56 -42 -96 -88 -207 -22 -55 -47 -57 -71 -6 -21 42 -67 72 -203 131 -19 8
-47 21 -62 29 -14 7 -33 13 -41 13 -8 0 -28 7 -43 15 -43 22 -111 20 -124 -4
-22 -42 -8 -133 36 -239 8 -18 14 -41 14 -52 0 -27 27 -39 69 -29 20 5 72 9
116 10 44 0 105 4 135 7 84 11 110 5 110 -23 0 -16 -10 -27 -34 -39 -19 -9
-41 -16 -49 -16 -9 0 -19 -4 -22 -10 -3 -5 -21 -10 -39 -10 -18 0 -55 -7 -82
-15 -27 -8 -78 -15 -114 -15 -87 0 -121 21 -155 97 -65 143 -65 143 -94 143
-31 0 -51 16 -51 43 0 10 21 62 46 115 26 53 53 113 62 132 8 19 21 47 29 62
7 14 13 33 13 42 0 9 4 24 9 34 5 9 24 48 42 86 29 60 72 116 90 116 4 0 26
-9 50 -19z m229 -106 c0 -8 -7 -15 -15 -15 -8 0 -15 7 -15 15 0 8 7 15 15 15
8 0 15 -7 15 -15z m-582 -577 c7 -7 12 -24 12 -39 0 -52 147 -154 337 -234 31
-13 55 -16 92 -11 43 6 50 4 56 -12 8 -26 -28 -101 -87 -181 -23 -32 -59 -25
-70 14 -10 37 -29 59 -88 105 -48 37 -73 54 -105 70 -11 6 -33 19 -50 30 -16
11 -39 24 -50 30 -11 6 -33 19 -50 30 -52 34 -54 34 -90 -6 -42 -47 -52 -78
-34 -100 13 -16 176 -160 249 -220 121 -101 152 -153 113 -196 -29 -32 -95
-24 -243 27 -124 44 -257 78 -275 72 -23 -10 -4 -40 48 -76 23 -16 65 -50 92
-75 70 -65 121 -91 152 -77 28 13 63 -1 63 -25 0 -34 -110 -164 -140 -164 -26
0 -40 21 -40 61 0 31 -9 45 -62 100 -35 36 -99 96 -143 134 -44 38 -92 82
-107 97 -15 15 -29 28 -31 28 -10 0 -107 -104 -107 -115 0 -6 9 -20 20 -30 36
-33 186 -238 219 -299 64 -122 25 -227 -108 -286 -84 -38 -174 -21 -246 47
-34 32 -95 107 -95 118 0 10 -91 128 -114 147 -43 36 -119 4 -124 -51 -3 -28
49 -149 107 -251 33 -58 70 -171 71 -215 0 -55 -44 -102 -142 -149 -97 -47
-115 -44 -188 32 -78 80 -95 108 -81 138 19 42 52 31 126 -41 36 -36 73 -65
82 -65 28 0 81 40 87 66 10 38 -3 90 -42 174 -72 155 -138 237 -191 238 -45 1
-48 7 -26 48 15 29 50 57 137 109 32 19 127 85 140 98 61 55 158 72 143 24
-22 -72 -15 -95 65 -202 66 -90 140 -160 182 -174 43 -14 97 -1 135 34 27 24
32 95 8 115 -8 7 -15 17 -15 22 0 8 -37 65 -50 78 -3 3 -21 25 -40 50 -54 71
-102 124 -129 142 -22 15 -27 15 -54 1 -18 -9 -33 -11 -39 -5 -21 21 9 65 119
173 63 63 130 129 147 147 36 35 69 40 100 17 11 -8 28 -15 38 -15 9 0 32 -6
50 -14 54 -23 189 -67 241 -78 36 -8 51 -8 60 1 13 13 -7 34 -111 120 -92 76
-122 93 -161 90 -72 -5 -79 24 -24 97 20 27 40 51 44 54 4 3 36 49 72 102 95
140 114 157 145 126z"
    />
</g>
</svg>
